<svg xmlns="http://www.w3.org/2000/svg" width="21" height="15" viewBox="0 0 21 15">
  <path id="Path_20633" data-name="Path 20633" d="M-15.375-16.5a2.583,2.583,0,0,0-1.312.352,2.578,2.578,0,0,0-.961.961A2.583,2.583,0,0,0-18-13.875a2.583,2.583,0,0,0,.352,1.313,2.578,2.578,0,0,0,.961.961,2.583,2.583,0,0,0,1.313.352,2.583,2.583,0,0,0,1.313-.352,2.578,2.578,0,0,0,.961-.961,2.583,2.583,0,0,0,.352-1.312,2.583,2.583,0,0,0-.352-1.312,2.578,2.578,0,0,0-.961-.961A2.583,2.583,0,0,0-15.375-16.5Zm6.75,0a2.583,2.583,0,0,0-1.312.352,2.578,2.578,0,0,0-.961.961,2.583,2.583,0,0,0-.352,1.313,2.583,2.583,0,0,0,.352,1.313,2.578,2.578,0,0,0,.961.961,2.583,2.583,0,0,0,1.313.352A2.583,2.583,0,0,0-7.312-11.6a2.578,2.578,0,0,0,.961-.961A2.583,2.583,0,0,0-6-13.875a2.583,2.583,0,0,0-.352-1.312,2.578,2.578,0,0,0-.961-.961A2.583,2.583,0,0,0-8.625-16.5Zm-6.75,1.5a1.085,1.085,0,0,1,.8.328,1.085,1.085,0,0,1,.328.8,1.085,1.085,0,0,1-.328.8,1.085,1.085,0,0,1-.8.328,1.085,1.085,0,0,1-.8-.328,1.085,1.085,0,0,1-.328-.8,1.085,1.085,0,0,1,.328-.8A1.085,1.085,0,0,1-15.375-15Zm6.75,0a1.085,1.085,0,0,1,.8.328,1.085,1.085,0,0,1,.328.8,1.085,1.085,0,0,1-.328.8,1.085,1.085,0,0,1-.8.328,1.085,1.085,0,0,1-.8-.328,1.085,1.085,0,0,1-.328-.8,1.085,1.085,0,0,1,.328-.8A1.085,1.085,0,0,1-8.625-15ZM-18.75-12a2.848,2.848,0,0,0-1.5.41,3.164,3.164,0,0,0-1.09,1.09A2.848,2.848,0,0,0-21.75-9,2.812,2.812,0,0,0-21.5-7.84a3.222,3.222,0,0,0,.668.973,3.708,3.708,0,0,0-1.219,1.336A3.674,3.674,0,0,0-22.5-3.75H-21a2.17,2.17,0,0,1,.656-1.594A2.17,2.17,0,0,1-18.75-6a2.17,2.17,0,0,1,1.594.656A2.17,2.17,0,0,1-16.5-3.75H-15a3.674,3.674,0,0,0-.445-1.781,3.708,3.708,0,0,0-1.219-1.336A3.222,3.222,0,0,0-16-7.84,2.812,2.812,0,0,0-15.75-9a2.848,2.848,0,0,0-.41-1.5,3.164,3.164,0,0,0-1.09-1.09A2.848,2.848,0,0,0-18.75-12ZM-15-3.75a3.678,3.678,0,0,0-.75,2.25h1.5a2.17,2.17,0,0,1,.656-1.594A2.17,2.17,0,0,1-12-3.75a2.17,2.17,0,0,1,1.594.656A2.17,2.17,0,0,1-9.75-1.5h1.5A3.678,3.678,0,0,0-9-3.75a3.451,3.451,0,0,0-.914-.867,3.222,3.222,0,0,0,.668-.973A2.812,2.812,0,0,0-9-6.75a2.848,2.848,0,0,0-.41-1.5A3.164,3.164,0,0,0-10.5-9.34,2.848,2.848,0,0,0-12-9.75a2.848,2.848,0,0,0-1.5.41,3.164,3.164,0,0,0-1.09,1.09A2.848,2.848,0,0,0-15-6.75a2.812,2.812,0,0,0,.246,1.16,3.222,3.222,0,0,0,.668.973A3.451,3.451,0,0,0-15-3.75Zm6,0h1.5a2.17,2.17,0,0,1,.656-1.594A2.17,2.17,0,0,1-5.25-6a2.17,2.17,0,0,1,1.594.656A2.17,2.17,0,0,1-3-3.75h1.5a3.674,3.674,0,0,0-.445-1.781A3.708,3.708,0,0,0-3.164-6.867,3.222,3.222,0,0,0-2.5-7.84,2.812,2.812,0,0,0-2.25-9a2.848,2.848,0,0,0-.41-1.5,3.164,3.164,0,0,0-1.09-1.09A2.848,2.848,0,0,0-5.25-12a2.848,2.848,0,0,0-1.5.41A3.164,3.164,0,0,0-7.84-10.5,2.848,2.848,0,0,0-8.25-9,2.812,2.812,0,0,0-8-7.84a3.222,3.222,0,0,0,.668.973A3.708,3.708,0,0,0-8.555-5.531,3.674,3.674,0,0,0-9-3.75Zm-9.75-6.75a1.449,1.449,0,0,1,1.066.434A1.449,1.449,0,0,1-17.25-9a1.449,1.449,0,0,1-.434,1.066A1.449,1.449,0,0,1-18.75-7.5a1.449,1.449,0,0,1-1.066-.434A1.449,1.449,0,0,1-20.25-9a1.449,1.449,0,0,1,.434-1.066A1.449,1.449,0,0,1-18.75-10.5Zm13.5,0a1.449,1.449,0,0,1,1.066.434A1.449,1.449,0,0,1-3.75-9a1.449,1.449,0,0,1-.434,1.066A1.449,1.449,0,0,1-5.25-7.5a1.449,1.449,0,0,1-1.066-.434A1.449,1.449,0,0,1-6.75-9a1.449,1.449,0,0,1,.434-1.066A1.449,1.449,0,0,1-5.25-10.5ZM-12-8.25a1.449,1.449,0,0,1,1.066.434A1.449,1.449,0,0,1-10.5-6.75a1.449,1.449,0,0,1-.434,1.066A1.449,1.449,0,0,1-12-5.25a1.449,1.449,0,0,1-1.066-.434A1.449,1.449,0,0,1-13.5-6.75a1.449,1.449,0,0,1,.434-1.066A1.449,1.449,0,0,1-12-8.25Z" transform="translate(22.5 16.5)" fill="#ffab00"/>
</svg>
