<svg xmlns="http://www.w3.org/2000/svg" width="24.5" height="17.5" viewBox="0 0 24.5 17.5">
  <path id="Path_20517" data-name="Path 20517" d="M5.988-1.75a14.986,14.986,0,0,1-3.172-.465A26.857,26.857,0,0,1,.082-3.062L.055-3.09q-1.887-.629-2.871-.875a13.816,13.816,0,0,0-3.309-.41,14.11,14.11,0,0,0-4.977.82l-1.148.41V-18.1l.574-.219a16.535,16.535,0,0,1,4.648-.9q.355-.027.711-.027a15.051,15.051,0,0,1,3.555.438q1.066.246,3.035.93H.3a30.254,30.254,0,0,0,3.117.957,13.654,13.654,0,0,0,3.527.3,13.732,13.732,0,0,0,4.129-.82l1.176-.41V-2.9l-.574.219a15.129,15.129,0,0,1-4.648.9Q6.535-1.75,5.988-1.75ZM6.043-3.5a7.678,7.678,0,0,0,.916,0q.451-.027,1-.082a2.112,2.112,0,0,1,.752-1.189,2.083,2.083,0,0,1,1.354-.479A1.8,1.8,0,0,1,10.5-5.2V-13.18a1.8,1.8,0,0,1-.437.055,2.121,2.121,0,0,1-1.408-.52A2.13,2.13,0,0,1,7.9-14.93q-.41.027-.875.055a15.447,15.447,0,0,1-3.965-.355A31.236,31.236,0,0,1-.273-16.242a27.052,27.052,0,0,0-3.117-.93A13.194,13.194,0,0,0-6.945-17.5q-.465.027-1.012.082a2.059,2.059,0,0,1-.752,1.2,2.121,2.121,0,0,1-1.354.465A1.8,1.8,0,0,1-10.5-15.8V-7.82a1.8,1.8,0,0,1,.438-.055,2.105,2.105,0,0,1,1.422.52A2.17,2.17,0,0,1-7.9-6.043a12.368,12.368,0,0,1,1.777-.082,16.918,16.918,0,0,1,3.691.465q1.066.246,3.035.93H.629a26.932,26.932,0,0,0,2.57.82A12.037,12.037,0,0,0,6.043-3.5ZM0-6.125a2.93,2.93,0,0,1-1.764-.588,3.993,3.993,0,0,1-1.271-1.6A5.176,5.176,0,0,1-3.5-10.5a5.176,5.176,0,0,1,.465-2.187,3.993,3.993,0,0,1,1.271-1.6A2.93,2.93,0,0,1,0-14.875a2.93,2.93,0,0,1,1.764.588,3.993,3.993,0,0,1,1.271,1.6A5.176,5.176,0,0,1,3.5-10.5a5.176,5.176,0,0,1-.465,2.188,3.993,3.993,0,0,1-1.271,1.6A2.93,2.93,0,0,1,0-6.125Zm0-1.75a1.48,1.48,0,0,0,1.23-.779A3.249,3.249,0,0,0,1.75-10.5a3.249,3.249,0,0,0-.52-1.846A1.48,1.48,0,0,0,0-13.125a1.48,1.48,0,0,0-1.23.779A3.249,3.249,0,0,0-1.75-10.5a3.249,3.249,0,0,0,.52,1.846A1.48,1.48,0,0,0,0-7.875Zm6.563,0a1.266,1.266,0,0,1-.93-.383,1.266,1.266,0,0,1-.383-.93,1.266,1.266,0,0,1,.383-.93,1.266,1.266,0,0,1,.93-.383,1.266,1.266,0,0,1,.93.383,1.266,1.266,0,0,1,.383.93,1.266,1.266,0,0,1-.383.93A1.266,1.266,0,0,1,6.563-7.875ZM-6.562-10.5a1.266,1.266,0,0,1-.93-.383,1.266,1.266,0,0,1-.383-.93,1.266,1.266,0,0,1,.383-.93,1.266,1.266,0,0,1,.93-.383,1.266,1.266,0,0,1,.93.383,1.266,1.266,0,0,1,.383.93,1.266,1.266,0,0,1-.383.93A1.266,1.266,0,0,1-6.562-10.5Z" transform="translate(12.25 -1.75) rotate(180)" fill="#ffab00"/>
</svg>
