<svg xmlns="http://www.w3.org/2000/svg" width="17.5" height="19.25" viewBox="0 0 17.5 19.25">
  <path id="Path_20516" data-name="Path 20516" d="M0-.875A6,6,0,0,1-3.076-1.7,6.077,6.077,0,0,1-5.3-3.924,6,6,0,0,1-6.125-7,6,6,0,0,1-5.4-9.9a6.1,6.1,0,0,1,1.982-2.187,9.134,9.134,0,0,1-2.775-1.887,8.475,8.475,0,0,1-1.873-2.762,8.6,8.6,0,0,1-.684-3.391H-7a6.791,6.791,0,0,0,.943,3.514,7.084,7.084,0,0,0,2.543,2.543A6.791,6.791,0,0,0,0-13.125a6.791,6.791,0,0,0,3.514-.943,7.084,7.084,0,0,0,2.543-2.543A6.791,6.791,0,0,0,7-20.125H8.75a8.6,8.6,0,0,1-.684,3.391,8.475,8.475,0,0,1-1.873,2.762,9.134,9.134,0,0,1-2.775,1.887A6.1,6.1,0,0,1,5.4-9.9,6,6,0,0,1,6.125-7,6,6,0,0,1,5.3-3.924,6.077,6.077,0,0,1,3.076-1.7,6,6,0,0,1,0-.875Zm0-1.75a4.257,4.257,0,0,0,2.2-.588A4.409,4.409,0,0,0,3.787-4.8,4.257,4.257,0,0,0,4.375-7a4.257,4.257,0,0,0-.588-2.2A4.409,4.409,0,0,0,2.2-10.787,4.257,4.257,0,0,0,0-11.375a4.257,4.257,0,0,0-2.2.588A4.409,4.409,0,0,0-3.787-9.2,4.257,4.257,0,0,0-4.375-7a4.257,4.257,0,0,0,.588,2.2A4.409,4.409,0,0,0-2.2-3.213,4.257,4.257,0,0,0,0-2.625Z" transform="translate(8.75 -0.875) rotate(180)" fill="#ffab00"/>
</svg>
