<svg xmlns="http://www.w3.org/2000/svg" width="19.25" height="22.75" viewBox="0 0 19.25 22.75">
  <path id="Path_20518" data-name="Path 20518" d="M0,.875A9.417,9.417,0,0,1-4.84-.437,9.61,9.61,0,0,1-8.312-3.91,9.417,9.417,0,0,1-9.625-8.75V-14a2.5,2.5,0,0,1,.492-1.518,2.628,2.628,0,0,1,1.258-.943v-.164a4.28,4.28,0,0,1,.588-2.187,4.344,4.344,0,0,1,1.6-1.6A4.28,4.28,0,0,1-3.5-21h1.121a1.808,1.808,0,0,1,.643-.643,1.673,1.673,0,0,1,.861-.232H.875a1.682,1.682,0,0,1,1.23.52,1.682,1.682,0,0,1,.52,1.23,1.682,1.682,0,0,1-.52,1.23,1.682,1.682,0,0,1-1.23.52H-.875a1.673,1.673,0,0,1-.861-.232,1.808,1.808,0,0,1-.643-.643H-3.5a2.531,2.531,0,0,0-1.859.766,2.531,2.531,0,0,0-.766,1.859h1.75V-8.75h-3.5A7.746,7.746,0,0,0-6.809-4.785,8.169,8.169,0,0,0-3.965-1.941,7.746,7.746,0,0,0,0-.875,7.746,7.746,0,0,0,3.965-1.941,8.169,8.169,0,0,0,6.809-4.785,7.746,7.746,0,0,0,7.875-8.75h-3.5v-7.875H7a2.523,2.523,0,0,1,1.846.779A2.523,2.523,0,0,1,9.625-14v5.25A9.417,9.417,0,0,1,8.313-3.91,9.61,9.61,0,0,1,4.84-.437,9.417,9.417,0,0,1,0,.875ZM-7.875-10.5h1.75v-4.375H-7a.841.841,0,0,0-.615.26.841.841,0,0,0-.26.615Zm14,0h1.75V-14a.841.841,0,0,0-.26-.615A.841.841,0,0,0,7-14.875H6.125Z" transform="translate(9.625 0.875) rotate(180)" fill="#ffab00"/>
</svg>
