<svg xmlns="http://www.w3.org/2000/svg" width="12.25" height="20.125" viewBox="0 0 12.25 20.125">
  <path id="Path_20514" data-name="Path 20514" d="M0-20.125a6,6,0,0,0-3.076.82A6.077,6.077,0,0,0-5.3-17.076,6,6,0,0,0-6.125-14a5.913,5.913,0,0,0,.7,2.816,6.164,6.164,0,0,0,1.887,2.16A6.056,6.056,0,0,0-.875-7.957V0H.875V-7.957A6.056,6.056,0,0,0,3.541-9.023a6.164,6.164,0,0,0,1.887-2.16A5.913,5.913,0,0,0,6.125-14a6,6,0,0,0-.82-3.076A6.077,6.077,0,0,0,3.076-19.3,6,6,0,0,0,0-20.125Zm0,1.75a4.257,4.257,0,0,1,2.2.588A4.409,4.409,0,0,1,3.787-16.2,4.257,4.257,0,0,1,4.375-14a4.257,4.257,0,0,1-.588,2.2A4.409,4.409,0,0,1,2.2-10.213,4.257,4.257,0,0,1,0-9.625a4.257,4.257,0,0,1-2.2-.588A4.409,4.409,0,0,1-3.787-11.8,4.257,4.257,0,0,1-4.375-14a4.257,4.257,0,0,1,.588-2.2A4.409,4.409,0,0,1-2.2-17.787,4.257,4.257,0,0,1,0-18.375ZM0-17.5a3.323,3.323,0,0,0-1.75.479A3.691,3.691,0,0,0-3.021-15.75,3.323,3.323,0,0,0-3.5-14h1.75a1.691,1.691,0,0,1,.506-1.244A1.691,1.691,0,0,1,0-15.75Z" transform="translate(6.125 20.125)" fill="#ffab00"/>
</svg>
