<svg xmlns="http://www.w3.org/2000/svg" width="9" height="21" viewBox="0 0 9 21">
  <path id="Path_20635" data-name="Path 20635" d="M-12-19.5a2.848,2.848,0,0,0-1.5.41A3.164,3.164,0,0,0-14.59-18,2.848,2.848,0,0,0-15-16.5a2.833,2.833,0,0,0,.223,1.113,3.167,3.167,0,0,0,.621.949,4.562,4.562,0,0,0-1.7,1.641,4.323,4.323,0,0,0-.645,2.3v4.055l.211.234L-15-4.922V1.5h1.5V-5.555l-.211-.234L-15-7.078V-10.5a2.975,2.975,0,0,1,.4-1.512,2.919,2.919,0,0,1,1.09-1.09A2.975,2.975,0,0,1-12-13.5a2.975,2.975,0,0,1,1.512.4,2.919,2.919,0,0,1,1.09,1.09A2.975,2.975,0,0,1-9-10.5v3.422l-1.289,1.289-.211.234V1.5H-9V-4.922l1.289-1.289.211-.234V-10.5a4.323,4.323,0,0,0-.645-2.3,4.562,4.562,0,0,0-1.7-1.641,3.167,3.167,0,0,0,.621-.949A2.833,2.833,0,0,0-9-16.5,2.848,2.848,0,0,0-9.41-18a3.164,3.164,0,0,0-1.09-1.09A2.848,2.848,0,0,0-12-19.5Zm0,1.5a1.449,1.449,0,0,1,1.066.434A1.449,1.449,0,0,1-10.5-16.5a1.449,1.449,0,0,1-.434,1.066A1.449,1.449,0,0,1-12-15a1.449,1.449,0,0,1-1.066-.434A1.449,1.449,0,0,1-13.5-16.5a1.449,1.449,0,0,1,.434-1.066A1.449,1.449,0,0,1-12-18Z" transform="translate(16.5 19.5)" fill="#ffab00"/>
</svg>
