<svg xmlns="http://www.w3.org/2000/svg" width="15.012" height="14.994" viewBox="0 0 15.012 14.994">
  <path id="Path_20498" data-name="Path 20498" d="M10.117-15a7.392,7.392,0,0,0-3.223.684,7.282,7.282,0,0,0-2.559,1.9,7.548,7.548,0,0,0-1.543,2.8A7.41,7.41,0,0,0,2.6-6.23,7.158,7.158,0,0,0,3.75-3.32,7.456,7.456,0,0,0,6.016-1.143,7.427,7.427,0,0,0,8.975-.078a7.5,7.5,0,0,0,3.1-.215,7.369,7.369,0,0,0,2.617-1.348l-.781-.977a6.262,6.262,0,0,1-2.187,1.133,6.42,6.42,0,0,1-2.588.176A6.053,6.053,0,0,1,6.68-2.2,6.238,6.238,0,0,1,4.8-4.014a6.022,6.022,0,0,1-.957-2.412A6.312,6.312,0,0,1,4.316-10.1a6.015,6.015,0,0,1,2.3-2.656,6.183,6.183,0,0,1,3.477-1,5.947,5.947,0,0,1,3.027.859,6.286,6.286,0,0,1,2.207,2.168A6.142,6.142,0,0,1,16.25-7.7v.215a2.373,2.373,0,0,1-.342,1.25,2.555,2.555,0,0,1-.908.9A2.427,2.427,0,0,1,13.75-5a1.208,1.208,0,0,1-.889-.361A1.208,1.208,0,0,1,12.5-6.25v-5H11.25v.488a2.737,2.737,0,0,0-1.562-.488,2.715,2.715,0,0,0-1.406.381A2.866,2.866,0,0,0,7.256-9.844a2.715,2.715,0,0,0-.381,1.406v1.875a2.715,2.715,0,0,0,.381,1.406A2.866,2.866,0,0,0,8.281-4.131a2.715,2.715,0,0,0,1.406.381,2.663,2.663,0,0,0,1.172-.264,2.893,2.893,0,0,0,.938-.713,2.6,2.6,0,0,0,.859.713,2.339,2.339,0,0,0,1.094.264,3.62,3.62,0,0,0,1.875-.508,3.847,3.847,0,0,0,1.367-1.357A3.568,3.568,0,0,0,17.5-7.48v-.254a7.225,7.225,0,0,0-1.094-3.633,7.41,7.41,0,0,0-2.637-2.6A7.141,7.141,0,0,0,10.117-15Zm-.43,5a1.5,1.5,0,0,1,1.1.459,1.5,1.5,0,0,1,.459,1.1v1.875a1.5,1.5,0,0,1-.459,1.1A1.5,1.5,0,0,1,9.688-5a1.5,1.5,0,0,1-1.1-.459,1.5,1.5,0,0,1-.459-1.1V-8.437a1.5,1.5,0,0,1,.459-1.1A1.5,1.5,0,0,1,9.688-10Z" transform="translate(-2.488 15.001)" fill="rgba(250,250,250,0.97)" opacity="0.87"/>
</svg>
