<svg xmlns="http://www.w3.org/2000/svg" width="18" height="18.398" viewBox="0 0 18 18.398">
  <path id="Path_20627" data-name="Path 20627" d="M-7.5-18.75a4.343,4.343,0,0,0-2.25.609A4.586,4.586,0,0,0-11.391-16.5,4.343,4.343,0,0,0-12-14.25a3.846,3.846,0,0,0,.188,1.125,9.281,9.281,0,0,0,.469,1.219,23.511,23.511,0,0,0,1.313,2.555q.961,1.641,1.922,3.023l.609.891,1.219-1.781q.727-1.1,1.313-2.133a23.511,23.511,0,0,0,1.313-2.555,9.281,9.281,0,0,0,.469-1.219A3.846,3.846,0,0,0-3-14.25a4.343,4.343,0,0,0-.609-2.25A4.586,4.586,0,0,0-5.25-18.141,4.343,4.343,0,0,0-7.5-18.75ZM-15.023-17.3-21-14.742V-.352l6.023-2.6,6,2.25L-3-3.258V-9.8q-.586,1.125-1.5,2.578v2.977L-8.25-2.648V-3.867l-1.5-2.18v3.469l-4.5-1.687V-15.422l.82.3a6.224,6.224,0,0,1,.4-1.453Zm7.523.047a2.975,2.975,0,0,1,1.512.4,2.919,2.919,0,0,1,1.09,1.09,2.975,2.975,0,0,1,.4,1.512,2.846,2.846,0,0,1-.141.715,8.7,8.7,0,0,1-.375,1.02A25.276,25.276,0,0,1-6.281-10.1q-.539.914-1.1,1.758l-.117.188-.117-.187q-.562-.844-1.1-1.758a25.276,25.276,0,0,1-1.266-2.414,8.7,8.7,0,0,1-.375-1.02,2.846,2.846,0,0,1-.141-.715,2.975,2.975,0,0,1,.4-1.512,2.919,2.919,0,0,1,1.09-1.09A2.975,2.975,0,0,1-7.5-17.25Zm-8.25,1.875V-4.242L-19.5-2.648V-13.758Zm8.25,0a1.085,1.085,0,0,0-.8.328,1.085,1.085,0,0,0-.328.8,1.085,1.085,0,0,0,.328.8,1.085,1.085,0,0,0,.8.328,1.085,1.085,0,0,0,.8-.328,1.085,1.085,0,0,0,.328-.8,1.085,1.085,0,0,0-.328-.8A1.085,1.085,0,0,0-7.5-15.375Z" transform="translate(21 18.75)" fill="#8e8d91"/>
</svg>
