<svg xmlns="http://www.w3.org/2000/svg" width="13.75" height="14.375" viewBox="0 0 13.75 14.375">
  <path id="Path_20493" data-name="Path 20493" d="M5.625-15v.625h-2.5V-.625h13.75v-13.75h-2.5V-15h-1.25v.625H6.875V-15Zm-1.25,1.875h1.25v.625h1.25v-.625h6.25v.625h1.25v-.625h1.25v1.25H4.375Zm0,2.5h11.25v8.75H4.375Zm3.75,1.25v1.25h1.25v-1.25Zm2.5,0v1.25h1.25v-1.25Zm2.5,0v1.25h1.25v-1.25Zm-7.5,2.5v1.25h1.25v-1.25Zm2.5,0v1.25h1.25v-1.25Zm2.5,0v1.25h1.25v-1.25Zm2.5,0v1.25h1.25v-1.25Zm-7.5,2.5v1.25h1.25v-1.25Zm2.5,0v1.25h1.25v-1.25Zm2.5,0v1.25h1.25v-1.25Z" transform="translate(-3.125 15)" fill="rgba(250,250,250,0.97)" opacity="0.87"/>
</svg>
