<svg xmlns="http://www.w3.org/2000/svg" width="21.711" height="21" viewBox="0 0 21.711 21">
  <path id="Path_20521" data-name="Path 20521" d="M-2.57,0A2.293,2.293,0,0,1-3.609-.246,3.063,3.063,0,0,1-4.484-.9,6.219,6.219,0,0,1-5.605-2.734,27.473,27.473,0,0,1-6.7-6.07,8.683,8.683,0,0,1-9.105-7.109,2.529,2.529,0,0,1-10.5-9.187a2.345,2.345,0,0,1,1.094-1.887,7.229,7.229,0,0,1,1.914-.984,2.558,2.558,0,0,1,.191-.6,9.862,9.862,0,0,1-3.035-2.762l-.52-.738.738-.52,2.871-1.969L-8.422-21H8.422L7.246-18.648l2.871,1.969.738.52-.52.738A9.862,9.862,0,0,1,7.3-12.66a2.558,2.558,0,0,1,.191.6,7.229,7.229,0,0,1,1.914.984A2.345,2.345,0,0,1,10.5-9.187,2.529,2.529,0,0,1,9.105-7.109,8.683,8.683,0,0,1,6.7-6.07a28.26,28.26,0,0,1-1.148,3.4A6.2,6.2,0,0,1,4.457-.875,2.916,2.916,0,0,1,3.6-.232,2.316,2.316,0,0,1,2.57,0,4,4,0,0,1,1.5-.191L1.258-.246A5.409,5.409,0,0,0,0-.437a4.927,4.927,0,0,0-1.148.191A5.516,5.516,0,0,1-2.57,0Zm0-1.75a1.907,1.907,0,0,0,.328-.082A8.576,8.576,0,0,1,0-2.187a7.152,7.152,0,0,1,1.7.246,6.562,6.562,0,0,0,.9.191.527.527,0,0,0,.26-.068,1.585,1.585,0,0,0,.314-.26,4.711,4.711,0,0,0,.793-1.3,24.67,24.67,0,0,0,.984-3.049l.246-.9q.027.027-.082-.027a3.546,3.546,0,0,0-1.23-.355,29.647,29.647,0,0,0-3.8-.164H0a28.014,28.014,0,0,0-3.883.191,3.546,3.546,0,0,0-1.23.355A.21.21,0,0,1-5.2-7.3h-.027v.027l.027.055a.674.674,0,0,1,.109.383v.027A29.329,29.329,0,0,0-3.992-3.445,4.949,4.949,0,0,0-3.2-2.105.9.9,0,0,0-2.57-1.75ZM-6.836-7.957a2.1,2.1,0,0,1,.916-.93,5.977,5.977,0,0,1,1.791-.52A28.822,28.822,0,0,1,0-9.625H.109a30.167,30.167,0,0,1,4.02.191,5.3,5.3,0,0,1,1.791.506,2.145,2.145,0,0,1,.916.971,6.46,6.46,0,0,0,1.313-.6,2.423,2.423,0,0,0,.492-.41.4.4,0,0,0,.109-.219q0-.191-.41-.492a5.558,5.558,0,0,0-1.8-.848,19.369,19.369,0,0,0-2.9-.629A29.313,29.313,0,0,0,0-11.375a29.313,29.313,0,0,0-3.637.219,19.369,19.369,0,0,0-2.9.629,5.558,5.558,0,0,0-1.8.848q-.41.3-.41.492A.3.3,0,0,0-8.641-9a1.793,1.793,0,0,0,.465.41A6.185,6.185,0,0,0-6.836-7.957Zm2.27-4.785q.109-.027.355-.082.328-.055.52-.082a1.682,1.682,0,0,1,.533-1.025,1.814,1.814,0,0,1,1.135-.479,1.819,1.819,0,0,1,1.066.246,1.316,1.316,0,0,1,.574,1.039H.383a1.316,1.316,0,0,1,.574-1.039,1.819,1.819,0,0,1,1.066-.246,1.814,1.814,0,0,1,1.135.479,1.682,1.682,0,0,1,.533,1.025q.191.027.52.082l.355.082-.082-.547a8.064,8.064,0,0,0-.643-2.023,7.008,7.008,0,0,0-1.08-1.668A3.58,3.58,0,0,0-.014-18.375a3.712,3.712,0,0,0-2.748,1.422,6.952,6.952,0,0,0-1.053,1.641,8.939,8.939,0,0,0-.67,2.023ZM6.125-14a9.552,9.552,0,0,0,2.16-1.832L5.633-17.664,5-18.074l.574-1.176H2.816a6.468,6.468,0,0,1,1.258,1.121,9.169,9.169,0,0,1,1.969,4.074Zm-12.277-.027a.079.079,0,0,0,.055-.027l.055-.027A9.144,9.144,0,0,1-4.074-18.1a6.28,6.28,0,0,1,1.34-1.148H-5.578L-5-18.074l-.629.41-2.652,1.832A9.523,9.523,0,0,0-6.152-14.027Z" transform="translate(10.855) rotate(180)" fill="#ffab00"/>
</svg>
