<svg xmlns="http://www.w3.org/2000/svg" width="15" height="15" viewBox="0 0 15 15">
  <path id="Path_20483" data-name="Path 20483" d="M10-15a7.339,7.339,0,0,0-3.789,1.035,7.133,7.133,0,0,0-2.676,2.676A7.339,7.339,0,0,0,2.5-7.5,7.339,7.339,0,0,0,3.535-3.711a7.279,7.279,0,0,0,2.676,2.7A7.447,7.447,0,0,0,10,0a7.447,7.447,0,0,0,3.789-1.016,7.43,7.43,0,0,0,2.7-2.7A7.447,7.447,0,0,0,17.5-7.5a7.447,7.447,0,0,0-1.016-3.789,7.279,7.279,0,0,0-2.7-2.676A7.339,7.339,0,0,0,10-15Zm0,1.25a6.129,6.129,0,0,1,3.34.977l-.508.059.117,1.25-.664-.293-.547.469.1,1.289,1.348-.43,1.68.547-.43.781-1.016-.625-1.094.156-1.074.8-.605,1.875,1.211,1,1.309-.215a2.291,2.291,0,0,1,.293.566l.234.566-1,3.125A6.183,6.183,0,0,1,10-1.25a4.658,4.658,0,0,1-.488-.039h-.1L8.73-2.48l.664-2.5L6.875-6.875H4.551l-.605-1.23,1.68-1.328,2.5-1.191-.371-1.66,1.074-.234.508.7,1.875-.352-.332-1.445-1.387-.1.176-.02Q9.883-13.75,10-13.75Zm-.7.039-.977.41-.469-.078A5.846,5.846,0,0,1,9.3-13.711Zm-5.508,6.7.605.7V-5.02L5.566-3.73h.723L8.066-1.543A5.932,5.932,0,0,1,5.957-2.725a6.325,6.325,0,0,1-1.5-1.914A6.181,6.181,0,0,1,3.789-7.012Z" transform="translate(-2.5 15)" fill="rgba(250,250,250,0.97)"/>
</svg>
