<svg xmlns="http://www.w3.org/2000/svg" width="16.25" height="12.5" viewBox="0 0 16.25 12.5">
  <path id="Path_20492" data-name="Path 20492" d="M1.875-13.75v12.5h16.25v-12.5Zm1.25,1.25h13.75v10H14.746a.606.606,0,0,1-.039-.137.268.268,0,0,0-.059-.137,1.217,1.217,0,0,0-.9-.352,1.217,1.217,0,0,0-.9.352.268.268,0,0,0-.059.137.606.606,0,0,1-.039.137H7.246a.606.606,0,0,1-.039-.137.268.268,0,0,0-.059-.137,1.217,1.217,0,0,0-.9-.352,1.217,1.217,0,0,0-.9.352.268.268,0,0,0-.059.137.606.606,0,0,1-.039.137H3.125ZM7.5-11.25a2.373,2.373,0,0,0-1.25.342A2.636,2.636,0,0,0,5.342-10,2.373,2.373,0,0,0,5-8.75a2.344,2.344,0,0,0,.205.967,2.685,2.685,0,0,0,.557.811A3.067,3.067,0,0,0,4.746-5.85a3.079,3.079,0,0,0-.371,1.475h1.25A1.808,1.808,0,0,1,6.172-5.7,1.808,1.808,0,0,1,7.5-6.25,1.808,1.808,0,0,1,8.828-5.7a1.808,1.808,0,0,1,.547,1.328h1.25a3.079,3.079,0,0,0-.371-1.475A3.067,3.067,0,0,0,9.238-6.973a2.685,2.685,0,0,0,.557-.811A2.344,2.344,0,0,0,10-8.75,2.373,2.373,0,0,0,9.658-10a2.636,2.636,0,0,0-.908-.908A2.373,2.373,0,0,0,7.5-11.25ZM7.5-10a1.208,1.208,0,0,1,.889.361,1.208,1.208,0,0,1,.361.889,1.208,1.208,0,0,1-.361.889A1.208,1.208,0,0,1,7.5-7.5a1.208,1.208,0,0,1-.889-.361A1.208,1.208,0,0,1,6.25-8.75a1.208,1.208,0,0,1,.361-.889A1.208,1.208,0,0,1,7.5-10Zm4.375.625v1.25h3.75v-1.25Zm0,2.5v1.25h3.75v-1.25Z" transform="translate(-1.875 13.75)" fill="rgba(250,250,250,0.97)" opacity="0.87"/>
</svg>
