<svg xmlns="http://www.w3.org/2000/svg" width="16.25" height="16.25" viewBox="0 0 16.25 16.25">
  <path id="Path_20497" data-name="Path 20497" d="M12.5-15.625a5.427,5.427,0,0,0-2.832.781,5.52,5.52,0,0,0-2.012,2.012A5.427,5.427,0,0,0,6.875-10a5.538,5.538,0,0,0,.078.781l.02.117L2.051-4.2,1.875-4V.625H6.25V-1.25H8.125V-3.125H10V-4.98a5.608,5.608,0,0,0,2.5.605,5.533,5.533,0,0,0,2.832-.762,5.835,5.835,0,0,0,2.031-2.031A5.533,5.533,0,0,0,18.125-10a5.533,5.533,0,0,0-.762-2.832,5.674,5.674,0,0,0-2.031-2.012A5.427,5.427,0,0,0,12.5-15.625Zm0,1.25a4.288,4.288,0,0,1,2.2.586A4.341,4.341,0,0,1,16.289-12.2a4.288,4.288,0,0,1,.586,2.2,4.288,4.288,0,0,1-.586,2.2A4.341,4.341,0,0,1,14.7-6.211a4.288,4.288,0,0,1-2.2.586,4.322,4.322,0,0,1-1.1-.146,4.6,4.6,0,0,1-1.025-.4l-.156-.078H8.75v1.875H6.875V-2.5H5V-.625H3.125V-3.477L8.066-8.437,8.3-8.652l-.059-.332A7.023,7.023,0,0,1,8.125-10a4.288,4.288,0,0,1,.586-2.2A4.341,4.341,0,0,1,10.3-13.789,4.288,4.288,0,0,1,12.5-14.375ZM13.75-12.5a1.208,1.208,0,0,0-.889.361,1.208,1.208,0,0,0-.361.889,1.208,1.208,0,0,0,.361.889A1.208,1.208,0,0,0,13.75-10a1.208,1.208,0,0,0,.889-.361A1.208,1.208,0,0,0,15-11.25a1.208,1.208,0,0,0-.361-.889A1.208,1.208,0,0,0,13.75-12.5Z" transform="translate(-1.875 15.625)" fill="rgba(250,250,250,0.97)" opacity="0.87"/>
</svg>
