<svg xmlns="http://www.w3.org/2000/svg" width="16.016" height="15.995" viewBox="0 0 16.016 15.995">
  <path id="Path_20583" data-name="Path 20583" d="M-2.5-5a7.826,7.826,0,0,1-4.04-1.1A7.607,7.607,0,0,1-9.4-8.962,7.826,7.826,0,0,1-10.5-13a7.826,7.826,0,0,1,1.1-4.04,7.762,7.762,0,0,1,2.853-2.874A7.941,7.941,0,0,1-2.5-21a7.82,7.82,0,0,1,3.749.937,7.918,7.918,0,0,1,2.791,2.458l-1.083.771A6.535,6.535,0,0,0,.622-18.9,6.587,6.587,0,0,0-2.5-19.667a6.553,6.553,0,0,0-3.374.916,6.49,6.49,0,0,0-2.374,2.374A6.553,6.553,0,0,0-9.167-13a6.553,6.553,0,0,0,.916,3.374A6.49,6.49,0,0,0-5.876-7.254,6.553,6.553,0,0,0-2.5-6.338,6.587,6.587,0,0,0,.622-7.108,6.535,6.535,0,0,0,2.954-9.17L4.037-8.4A7.918,7.918,0,0,1,1.247-5.942,7.82,7.82,0,0,1-2.5-5ZM2.392-9.857l-.958-.958,1.52-1.52H-5.168v-1.333H2.954l-1.52-1.52.958-.958,2.666,2.666L5.516-13l-.458.479Z" transform="translate(5.516 -5.005) rotate(180)" fill="#f24822" opacity="0.87"/>
</svg>
