<svg xmlns="http://www.w3.org/2000/svg" width="12.5" height="13.75" viewBox="0 0 12.5 13.75">
  <path id="Path_20489" data-name="Path 20489" d="M10-14.375a4.288,4.288,0,0,0-2.2.586A4.341,4.341,0,0,0,6.211-12.2,4.288,4.288,0,0,0,5.625-10a4.284,4.284,0,0,0,.518,2.07A4.354,4.354,0,0,0,7.559-6.367,6.524,6.524,0,0,0,5.576-5.02,6.054,6.054,0,0,0,4.238-3.047,6.145,6.145,0,0,0,3.75-.625H5a4.85,4.85,0,0,1,.674-2.51A5.06,5.06,0,0,1,7.49-4.951,4.85,4.85,0,0,1,10-5.625a4.85,4.85,0,0,1,2.51.674,5.06,5.06,0,0,1,1.816,1.816A4.85,4.85,0,0,1,15-.625h1.25a6.145,6.145,0,0,0-.488-2.422A6.054,6.054,0,0,0,14.424-5.02a6.524,6.524,0,0,0-1.982-1.348A4.354,4.354,0,0,0,13.857-7.93,4.284,4.284,0,0,0,14.375-10a4.288,4.288,0,0,0-.586-2.2A4.341,4.341,0,0,0,12.2-13.789,4.288,4.288,0,0,0,10-14.375Zm0,1.25a3.041,3.041,0,0,1,1.572.42,3.149,3.149,0,0,1,1.133,1.133A3.041,3.041,0,0,1,13.125-10a3.041,3.041,0,0,1-.42,1.572,3.149,3.149,0,0,1-1.133,1.133A3.041,3.041,0,0,1,10-6.875a3.041,3.041,0,0,1-1.572-.42A3.149,3.149,0,0,1,7.295-8.428,3.041,3.041,0,0,1,6.875-10a3.041,3.041,0,0,1,.42-1.572,3.149,3.149,0,0,1,1.133-1.133A3.041,3.041,0,0,1,10-13.125Z" transform="translate(-3.75 14.375)" fill="rgba(250,250,250,0.97)" opacity="0.87"/>
</svg>
