<svg xmlns="http://www.w3.org/2000/svg" width="23.953" height="23.953" viewBox="0 0 23.953 23.953">
  <path id="Path_20523" data-name="Path 20523" d="M-10.773,1.477l-1.2-1.2,5.988-5.988-.055-.137,1.668-1.586v.082l4.02-4.02H-.437L1.586-13.4H1.7l9.078-9.078,1.2,1.2L8.367-17.637a8.662,8.662,0,0,1-1.873,3.295,8.5,8.5,0,0,1-3.076,2.174A6.372,6.372,0,0,1,5.4-9.967a5.919,5.919,0,0,1,.725,2.885A6,6,0,0,1,5.3-4.006,6.077,6.077,0,0,1,3.076-1.777,6,6,0,0,1,0-.957a5.93,5.93,0,0,1-3.062-.82A6.142,6.142,0,0,1-5.277-3.992ZM0-2.625a4.257,4.257,0,0,0,2.2-.588A4.409,4.409,0,0,0,3.787-4.8,4.257,4.257,0,0,0,4.375-7,4.311,4.311,0,0,0,3.65-9.434a4.173,4.173,0,0,0-1.9-1.586L-4.02-5.25a4.173,4.173,0,0,0,1.586,1.9A4.311,4.311,0,0,0,0-2.625ZM-5.961-8.148a6.614,6.614,0,0,1,.943-2.27,5.75,5.75,0,0,1,1.682-1.668,8.139,8.139,0,0,1-2.83-1.846,8.879,8.879,0,0,1-1.9-2.816,8.5,8.5,0,0,1-.684-3.377H-7a6.752,6.752,0,0,0,.9,3.445,7.147,7.147,0,0,0,2.434,2.516A4.025,4.025,0,0,1-2.2-15.941,3.811,3.811,0,0,1,0-16.625a3.333,3.333,0,0,1,1.914.52L.6-14.793a1.5,1.5,0,0,0-.6-.082,2.04,2.04,0,0,0-1.258.41A2.153,2.153,0,0,0-2.023-13.4l1.066.273Z" transform="translate(11.977 1.477) rotate(180)" fill="#ffab00"/>
</svg>
