<svg xmlns="http://www.w3.org/2000/svg" width="16.287" height="16.274" viewBox="0 0 16.287 16.274">
  <path id="Path_20499" data-name="Path 20499" d="M5.41-15.625a1.422,1.422,0,0,0-.918.332l-.039.02L2.48-13.242l.02.02a1.906,1.906,0,0,0-.586.986,1.94,1.94,0,0,0,.059,1.123v.02A17.629,17.629,0,0,0,3.438-7.969,20.011,20.011,0,0,0,6.5-4,20.343,20.343,0,0,0,13.594.527h.02a2.138,2.138,0,0,0,1.143.078A2.21,2.21,0,0,0,15.781.1l1.973-1.973a1.313,1.313,0,0,0,.391-.967,1.313,1.313,0,0,0-.391-.967L15.215-6.348l-.02-.039a1.325,1.325,0,0,0-.977-.391,1.325,1.325,0,0,0-.977.391l-1.25,1.25A10.143,10.143,0,0,1,9.434-6.895,7.642,7.642,0,0,1,7.7-9.434l1.25-1.25a1.3,1.3,0,0,0,.391-.957,1.271,1.271,0,0,0-.41-.957l.02-.02L6.387-15.254l-.059-.039A1.422,1.422,0,0,0,5.41-15.625Zm0,1.25a.241.241,0,0,1,.137.059L8.105-11.7a.136.136,0,0,1-.039.137L6.5-10l-.293.273.137.391.234.547A11.7,11.7,0,0,0,7.324-7.48a9.7,9.7,0,0,0,1.25,1.5l.137.117a11.072,11.072,0,0,0,1.465,1.113,11.257,11.257,0,0,0,1.211.7l.879.41,1.875-1.875q.059-.059.078-.059t.078.059l2.617,2.617q.039.039.039.049t-.039.049L14.961-.84A.939.939,0,0,1,14-.664,19.141,19.141,0,0,1,7.383-4.883a18.569,18.569,0,0,1-2.871-3.73,17.5,17.5,0,0,1-1.367-2.91.713.713,0,0,1-.02-.439.709.709,0,0,1,.215-.381l1.934-1.973A.241.241,0,0,1,5.41-14.375Z" transform="translate(-1.858 15.625)" fill="rgba(250,250,250,0.97)" opacity="0.87"/>
</svg>
