<svg xmlns="http://www.w3.org/2000/svg" width="14" height="14" viewBox="0 0 14 14">
  <path id="Path_20636" data-name="Path 20636" d="M.6-18.375a1.7,1.7,0,0,0-.639.122,1.632,1.632,0,0,0-.551.368,1.645,1.645,0,0,0-.42.753l-.053-.017a1.789,1.789,0,0,0-.3-.035,1.627,1.627,0,0,0-1.2.481,1.6,1.6,0,0,0-.481,1.173,1.61,1.61,0,0,0,.49,1.181l.473.472-2.8,2.8-.473-.472a1.6,1.6,0,0,0-1.172-.49,1.7,1.7,0,0,0-.639.123,1.632,1.632,0,0,0-.551.367,1.559,1.559,0,0,0-.42.726,1.818,1.818,0,0,0-.018.831,1.6,1.6,0,0,0-.735.4,1.61,1.61,0,0,0-.49,1.181,1.61,1.61,0,0,0,.49,1.181l.77.788-.385.385.8.8.385-.385.788.77a1.61,1.61,0,0,0,1.181.49,1.61,1.61,0,0,0,1.181-.49A1.645,1.645,0,0,0-3.74-5.6a1.742,1.742,0,0,0,.831-.026A1.581,1.581,0,0,0-2.2-6.037a1.61,1.61,0,0,0,.49-1.181A1.61,1.61,0,0,0-2.2-8.4l-.473-.472,2.8-2.8L.6-11.2a1.61,1.61,0,0,0,1.181.49,1.61,1.61,0,0,0,1.181-.49,1.581,1.581,0,0,0,.411-.709A1.742,1.742,0,0,0,3.4-12.74a1.645,1.645,0,0,0,.735-.42,1.61,1.61,0,0,0,.49-1.181,1.61,1.61,0,0,0-.49-1.181l-.77-.787.385-.385L2.945-17.5l-.385.385-.788-.77A1.6,1.6,0,0,0,.6-18.375Zm0,1.12a.524.524,0,0,1,.385.157l2.363,2.363a.524.524,0,0,1,.157.385.524.524,0,0,1-.157.385.534.534,0,0,1-.394.157.534.534,0,0,1-.394-.157L.215-16.31A.534.534,0,0,1,.058-16.7.534.534,0,0,1,.215-17.1.524.524,0,0,1,.6-17.255Zm-1.96,1.172a.535.535,0,0,1,.385.175l3.132,3.133a.534.534,0,0,1,.158.394.534.534,0,0,1-.158.394.484.484,0,0,1-.376.149.612.612,0,0,1-.394-.166H1.37l-3.132-3.133a.484.484,0,0,1-.149-.376.594.594,0,0,1,.175-.394A.507.507,0,0,1-1.36-16.083Zm.07,2.993.63.63-2.8,2.8-.63-.63Zm-5.233,2.17a.535.535,0,0,1,.385.175h.017l3.133,3.133a.484.484,0,0,1,.149.376A.578.578,0,0,1-3-6.851a.51.51,0,0,1-.385.166.524.524,0,0,1-.385-.157l-.385-.385-.07-.052L-6.907-9.975a.534.534,0,0,1-.158-.394.534.534,0,0,1,.158-.394A.524.524,0,0,1-6.523-10.92Zm-1.19,1.96a.553.553,0,0,1,.4.175L-4.965-6.44a.534.534,0,0,1,.157.394.534.534,0,0,1-.157.394.524.524,0,0,1-.385.158.524.524,0,0,1-.385-.158L-8.1-8.015A.524.524,0,0,1-8.255-8.4a.538.538,0,0,1,.166-.394A.519.519,0,0,1-7.713-8.96Z" transform="translate(9.375 18.375)" fill="rgba(250,250,250,0.97)" opacity="0.87"/>
</svg>
