<svg xmlns="http://www.w3.org/2000/svg" width="21.516" height="20.461" viewBox="0 0 21.516 20.461">
  <path id="Path_20628" data-name="Path 20628" d="M-12-19.406l-.68,1.547L-15.117-12.4l-7.641.82,1.266,1.125,4.43,4.008-1.594,7.5L-17.18.211l5.18-3,5.18,3,1.477.844-1.594-7.5,4.43-4.008,1.266-1.125-7.641-.82-2.437-5.461Zm0,3.68,1.922,4.336.188.4,5.133.539L-8.6-6.984l1.078,5.039-4.1-2.344L-12-4.523l-.375.234-4.1,2.344L-15.4-6.984l-3.844-3.469,5.133-.539.188-.4Z" transform="translate(22.758 19.406)" fill="#ffab00"/>
</svg>
