<svg xmlns="http://www.w3.org/2000/svg" width="22.75" height="23.543" viewBox="0 0 22.75 23.543">
  <path id="Path_20525" data-name="Path 20525" d="M0-.957a6,6,0,0,1-3.076-.82A6.077,6.077,0,0,1-5.3-4.006a6,6,0,0,1-.82-3.076A6.131,6.131,0,0,1-5.4-10.021a5.625,5.625,0,0,1,1.982-2.146,8.02,8.02,0,0,1-2.775-1.8A8.577,8.577,0,0,1-8.08-16.762a8.554,8.554,0,0,1-.67-3.363H-7a6.813,6.813,0,0,0,.943,3.5A7.018,7.018,0,0,0-3.5-14.068a6.813,6.813,0,0,0,3.5.943,7.993,7.993,0,0,0,1.395-.164l.137.137A6.693,6.693,0,0,1,.4-15.176,6.92,6.92,0,0,1,0-17.5,6.813,6.813,0,0,1,.943-21,7.018,7.018,0,0,1,3.5-23.557,6.813,6.813,0,0,1,7-24.5a6.813,6.813,0,0,1,3.5.943A7.018,7.018,0,0,1,13.057-21,6.813,6.813,0,0,1,14-17.5a6.813,6.813,0,0,1-.943,3.5A7.018,7.018,0,0,1,10.5-11.443,6.813,6.813,0,0,1,7-10.5a6.662,6.662,0,0,1-2.215-.383A6.213,6.213,0,0,1,5.77-9.092a5.953,5.953,0,0,1,.355,2.01A6,6,0,0,1,5.3-4.006,6.077,6.077,0,0,1,3.076-1.777,6,6,0,0,1,0-.957ZM0-2.625a4.257,4.257,0,0,0,2.2-.588A4.409,4.409,0,0,0,3.787-4.8,4.257,4.257,0,0,0,4.375-7a4.257,4.257,0,0,0-.588-2.2A4.409,4.409,0,0,0,2.2-10.787,4.257,4.257,0,0,0,0-11.375a4.257,4.257,0,0,0-2.2.588A4.409,4.409,0,0,0-3.787-9.2,4.257,4.257,0,0,0-4.375-7a4.257,4.257,0,0,0,.588,2.2A4.409,4.409,0,0,0-2.2-3.213,4.257,4.257,0,0,0,0-2.625Zm2.871-9.242a.024.024,0,0,1-.027-.027l-.055-.027ZM7-12.25a5.067,5.067,0,0,0,2.625-.711,5.35,5.35,0,0,0,1.914-1.914A5.067,5.067,0,0,0,12.25-17.5a5.067,5.067,0,0,0-.711-2.625,5.35,5.35,0,0,0-1.914-1.914A5.067,5.067,0,0,0,7-22.75a5.067,5.067,0,0,0-2.625.711,5.35,5.35,0,0,0-1.914,1.914A5.067,5.067,0,0,0,1.75-17.5a5.067,5.067,0,0,0,.711,2.625,5.35,5.35,0,0,0,1.914,1.914A5.067,5.067,0,0,0,7-12.25Zm-4.812-.191a2.784,2.784,0,0,1-.328-.328ZM6.125-14v-4.02l-1.477-1.5,1.2-1.2,2.023,2V-14Z" transform="translate(14 -0.957) rotate(180)" fill="#ffab00"/>
</svg>
