<svg xmlns="http://www.w3.org/2000/svg" width="26.25" height="15.75" viewBox="0 0 26.25 15.75">
  <path id="Path_20519" data-name="Path 20519" d="M-6.125-2.625A5.067,5.067,0,0,1-8.75-3.336,5.35,5.35,0,0,1-10.664-5.25a5.067,5.067,0,0,1-.711-2.625,5.121,5.121,0,0,1,.574-2.393,5.244,5.244,0,0,1,1.586-1.846,7.073,7.073,0,0,1-2.83-2.557,6.717,6.717,0,0,1-1.08-3.705h1.75a5.067,5.067,0,0,0,.711,2.625A5.35,5.35,0,0,0-8.75-13.836a5.067,5.067,0,0,0,2.625.711A5.067,5.067,0,0,0-3.5-13.836,5.35,5.35,0,0,0-1.586-15.75a5.067,5.067,0,0,0,.711-2.625H.875a5.067,5.067,0,0,0,.711,2.625A5.35,5.35,0,0,0,3.5-13.836a5.067,5.067,0,0,0,2.625.711,5.067,5.067,0,0,0,2.625-.711,5.35,5.35,0,0,0,1.914-1.914,5.067,5.067,0,0,0,.711-2.625h1.75a6.717,6.717,0,0,1-1.08,3.705,7.073,7.073,0,0,1-2.83,2.557A5.244,5.244,0,0,1,10.8-10.268a5.121,5.121,0,0,1,.574,2.393,5.067,5.067,0,0,1-.711,2.625A5.35,5.35,0,0,1,8.75-3.336a5.067,5.067,0,0,1-2.625.711A5.067,5.067,0,0,1,3.5-3.336,5.35,5.35,0,0,1,1.586-5.25,5.067,5.067,0,0,1,.875-7.875a5.121,5.121,0,0,1,.574-2.393,5.244,5.244,0,0,1,1.586-1.846A6.81,6.81,0,0,1,0-14.984a6.81,6.81,0,0,1-3.035,2.871,5.244,5.244,0,0,1,1.586,1.846A5.121,5.121,0,0,1-.875-7.875,5.067,5.067,0,0,1-1.586-5.25,5.35,5.35,0,0,1-3.5-3.336,5.067,5.067,0,0,1-6.125-2.625Zm0-1.75A3.47,3.47,0,0,0-4.361-4.84,3.4,3.4,0,0,0-3.09-6.111a3.47,3.47,0,0,0,.465-1.764A3.47,3.47,0,0,0-3.09-9.639,3.4,3.4,0,0,0-4.361-10.91a3.47,3.47,0,0,0-1.764-.465,3.47,3.47,0,0,0-1.764.465A3.4,3.4,0,0,0-9.16-9.639a3.47,3.47,0,0,0-.465,1.764A3.47,3.47,0,0,0-9.16-6.111,3.4,3.4,0,0,0-7.889-4.84,3.47,3.47,0,0,0-6.125-4.375Zm12.25,0A3.47,3.47,0,0,0,7.889-4.84,3.4,3.4,0,0,0,9.16-6.111a3.47,3.47,0,0,0,.465-1.764A3.47,3.47,0,0,0,9.16-9.639,3.4,3.4,0,0,0,7.889-10.91a3.47,3.47,0,0,0-1.764-.465,3.47,3.47,0,0,0-1.764.465A3.4,3.4,0,0,0,3.09-9.639a3.47,3.47,0,0,0-.465,1.764A3.47,3.47,0,0,0,3.09-6.111,3.4,3.4,0,0,0,4.361-4.84,3.47,3.47,0,0,0,6.125-4.375Z" transform="translate(13.125 -2.625) rotate(180)" fill="#ffab00"/>
</svg>
