<svg xmlns="http://www.w3.org/2000/svg" width="17.5" height="12.5" viewBox="0 0 17.5 12.5">
  <path id="Path_20501" data-name="Path 20501" d="M3.125-13.75a1.8,1.8,0,0,0-1.318.557,1.8,1.8,0,0,0-.557,1.318v8.75a1.8,1.8,0,0,0,.557,1.318,1.8,1.8,0,0,0,1.318.557h13.75a1.8,1.8,0,0,0,1.318-.557,1.8,1.8,0,0,0,.557-1.318v-8.75a1.8,1.8,0,0,0-.557-1.318,1.8,1.8,0,0,0-1.318-.557Zm0,1.25h13.75a.608.608,0,0,1,.449.176.608.608,0,0,1,.176.449v8.75a.608.608,0,0,1-.176.449.608.608,0,0,1-.449.176H3.125a.608.608,0,0,1-.449-.176A.608.608,0,0,1,2.5-3.125v-8.75a.608.608,0,0,1,.176-.449A.608.608,0,0,1,3.125-12.5Zm9,2.734a2.132,2.132,0,0,0-1.357.381,1.184,1.184,0,0,0-.479.967,1.163,1.163,0,0,0,.332.859,2.65,2.65,0,0,0,.664.43,4.587,4.587,0,0,1,.43.234.463.463,0,0,1,.176.352.283.283,0,0,1-.137.234,1,1,0,0,1-.625.156,2.981,2.981,0,0,1-.586-.059,1.761,1.761,0,0,1-.371-.117l-.137-.059-.2.9.137.059a2.518,2.518,0,0,0,.41.137,3.716,3.716,0,0,0,.684.059,2.173,2.173,0,0,0,.889-.205,2.16,2.16,0,0,0,.752-.537,1.181,1.181,0,0,0,.332-.8A.962.962,0,0,0,12.7-7.52a2.6,2.6,0,0,0-.684-.43,2.941,2.941,0,0,1-.391-.234.321.321,0,0,1-.176-.254.378.378,0,0,1,.186-.322,1.08,1.08,0,0,1,.6-.127,1.268,1.268,0,0,1,.527.137l.254.156.2-.957-.332-.117A3.233,3.233,0,0,0,12.129-9.766Zm-5.137.078L5.938-6.6l-.078-.43A5.3,5.3,0,0,0,5.2-8.105a4.393,4.393,0,0,0-.625-.586L4.3-8.867l.918,3.5h1.25L8.223-9.687Zm1.68,0L7.988-5.371H9.141l.684-4.316Zm6.211,0L13.008-5.371h1.133l.234-.605H15.82l.117.605h1.035l-.879-4.316Zm-11.855.02q.176.059.352.137a5.582,5.582,0,0,1,.84.41,4.952,4.952,0,0,1,.918.742A2.7,2.7,0,0,1,5.8-7.285L5.41-9.238l-.059-.117a.7.7,0,0,0-.2-.2.658.658,0,0,0-.371-.117Zm12.285,1.23.332,1.621h-.937Z" transform="translate(-1.25 13.75)" fill="rgba(250,250,250,0.97)" opacity="0.87"/>
</svg>
