<svg xmlns="http://www.w3.org/2000/svg" width="6.953" height="12" viewBox="0 0 6.953 12">
  <path id="Path_20510" data-name="Path 20510" d="M.25,0A1.722,1.722,0,0,1-.625-.234a1.719,1.719,0,0,1-.641-.641A1.722,1.722,0,0,1-1.5-1.75a1.722,1.722,0,0,1,.234-.875,1.719,1.719,0,0,1,.641-.641A1.722,1.722,0,0,1,.25-3.5a1.722,1.722,0,0,1,.875.234,1.719,1.719,0,0,1,.641.641A1.722,1.722,0,0,1,2-1.75a1.722,1.722,0,0,1-.234.875,1.719,1.719,0,0,1-.641.641A1.722,1.722,0,0,1,.25,0Zm0-1a.723.723,0,0,0,.531-.219A.723.723,0,0,0,1-1.75a.723.723,0,0,0-.219-.531A.723.723,0,0,0,.25-2.5a.723.723,0,0,0-.531.219A.723.723,0,0,0-.5-1.75a.723.723,0,0,0,.219.531A.723.723,0,0,0,.25-1ZM-1.594-3.625a.945.945,0,0,1-.672-.344l-.906-1.047A1,1,0,0,1-3.406-5.5L-3.75-7.437l.984-.172.344,1.938.906,1.047.406-.078L-1.7-7.391a.949.949,0,0,1,.172-.8L1.234-12H2.469L-.719-7.594l.594,2.7.234-.047L.484-6.25a.989.989,0,0,1,.227-.4.942.942,0,0,1,.383-.258l1.766-.672.344.938-1.75.672L1.063-4.656A1.035,1.035,0,0,1,.781-4.2.9.9,0,0,1,.3-3.953l-1.625.313A.776.776,0,0,1-1.594-3.625Zm-.172-5.391-.25-.969L-3.469-12h1.234l1.156,1.578.063.3Z" transform="translate(3.203) rotate(180)" fill="#8e8d91"/>
</svg>
